<?xml version="1.0" standalone="no"?>
<!DOCTYPE svg PUBLIC "-//W3C//DTD SVG 20010904//EN"
 "http://www.w3.org/TR/2001/REC-SVG-20010904/DTD/svg10.dtd">
<svg version="1.0" xmlns="http://www.w3.org/2000/svg"
 width="327.000000pt" height="327.000000pt" viewBox="0 0 327.000000 327.000000"
 preserveAspectRatio="xMidYMid meet">
<metadata>
Created by potrace 1.14, written by Peter Selinger 2001-2017
</metadata>
<g transform="translate(0.000000,327.000000) scale(0.100000,-0.100000)"
fill="#000000" stroke="none">
<path d="M540 3231 l0 -40 -47 -3 c-27 -2 -47 -6 -45 -10 1 -5 2 -392 2 -862
l0 -855 43 -3 c42 -3 42 -3 45 -45 l3 -43 -95 0 -96 0 0 -45 0 -45 -45 0 -45
0 0 -320 0 -320 -45 0 -45 0 0 -90 0 -90 -45 0 -45 0 0 -90 0 -90 -40 0 -40 0
0 -95 0 -95 40 0 40 0 0 -45 0 -45 1550 0 1550 0 0 45 0 45 45 0 45 0 0 95 0
95 -45 0 -45 0 0 90 0 90 -45 0 -45 0 0 90 0 90 -45 0 -45 0 0 320 0 320 -45
0 -45 0 0 45 0 45 -96 0 -95 0 3 43 3 42 45 3 45 3 -2 862 -3 862 -45 3 -45 3
0 40 0 39 -1090 0 -1090 0 0 -39z m1880 -1603 c0 -4 4 -7 9 -5 10 2 11 -1 11
-41 l0 -29 -85 -1 -85 0 0 37 c0 21 2 40 5 43 9 9 145 6 145 -4z m-1800 -548
c-8 -5 -10 -10 -5 -10 6 0 11 -13 11 -30 2 -29 0 -30 -42 -30 l-44 0 0 40 0
40 48 0 c34 0 43 -3 32 -10z"/>
</g>
</svg>
